<?xml version="1.0" standalone="no"?><!DOCTYPE svg PUBLIC "-//W3C//DTD SVG 1.1//EN" "http://www.w3.org/Graphics/SVG/1.1/DTD/svg11.dtd"><svg t="1727976426074" class="icon" viewBox="0 0 1024 1024" version="1.1" xmlns="http://www.w3.org/2000/svg" p-id="3811" xmlns:xlink="http://www.w3.org/1999/xlink" width="200" height="200"><path d="M396.288 979.968c-3.072 0-6.144-1.024-8.192-2.048-151.552-68.608-219.136-203.776-219.136-307.2 0-5.12 0-39.936 1.024-51.2 0-119.808 67.584-186.368 111.616-229.376 4.096-4.096 9.216-8.192 12.288-12.288l2.048-2.048C443.392 263.168 447.488 58.368 447.488 51.2c0-6.144 2.048-12.288 7.168-16.384 7.168-6.144 18.432-6.144 25.6 0 261.12 204.8 395.264 395.264 398.336 568.32v64.512c0 132.096-75.776 237.568-214.016 296.96-9.216 4.096-19.456 1.024-25.6-7.168-5.12-8.192-4.096-19.456 3.072-26.624 68.608-63.488 75.776-139.264 20.48-227.328-11.264-18.432-25.6-35.84-38.912-52.224-20.48-25.6-38.912-49.152-48.128-73.728-2.048-7.168-4.096-13.312-6.144-19.456-4.096-13.312-7.168-25.6-12.288-28.672-3.072-2.048-13.312-4.096-45.056 7.168h-1.024c-102.4 36.864-166.912 128-179.2 254.976 0 0-6.144 111.616 72.704 149.504 10.24 5.12 14.336 17.408 9.216 26.624-3.072 8.192-10.24 12.288-17.408 12.288z m154.624-491.52c10.24 0 18.432 2.048 26.624 6.144 20.48 10.24 26.624 32.768 32.768 53.248 2.048 5.12 3.072 11.264 5.12 17.408 6.144 17.408 22.528 38.912 40.96 61.44 14.336 17.408 28.672 35.84 40.96 55.296 45.056 70.656 54.272 140.288 29.696 200.704 59.392-44.032 109.568-111.616 109.568-215.04v-64.512c-1.024-152.576-119.808-324.608-351.232-512-3.072 27.648-10.24 61.44-18.432 91.136-27.648 95.232-77.824 173.056-145.408 225.28l-12.288 12.288c-41.984 40.96-99.328 97.28-99.328 201.728v2.048c-1.024 7.168-1.024 37.888-1.024 48.128 0 49.152 21.504 132.096 93.184 201.728-12.288-43.008-10.24-80.896-10.24-83.968 14.336-145.408 88.064-247.808 208.896-289.792h1.024c19.456-8.192 35.84-11.264 49.152-11.264z" p-id="3812"></path></svg>