<?xml version="1.0" standalone="no"?><!DOCTYPE svg PUBLIC "-//W3C//DTD SVG 1.1//EN" "http://www.w3.org/Graphics/SVG/1.1/DTD/svg11.dtd"><svg t="1727720732741" class="icon" viewBox="0 0 1024 1024" version="1.1" xmlns="http://www.w3.org/2000/svg" p-id="9491" xmlns:xlink="http://www.w3.org/1999/xlink" width="200" height="200"><path d="M87 508.3c-3.7 0-7.5-1.2-10.7-3.6-7.7-5.9-9.1-16.9-3.2-24.6 6.2-8 152.1-195.3 281.8-195.3 64.6 0 99.4 24.4 133.1 47.9 34.3 24 66.8 46.7 134.5 46.7 69.5 0 120.3-57.3 169.5-112.8 44.4-50.1 86.4-97.5 141.8-103.9 9.7-1.2 18.3 5.8 19.4 15.4 1.1 9.6-5.8 18.3-15.4 19.4-42.1 4.9-79.8 47.4-119.6 92.4-51.7 58.4-110.4 124.6-195.7 124.6-78.8 0-119.1-28.2-154.6-53-31.9-22.3-59.5-41.6-113-41.6-112.6 0-252.7 179.9-254.1 181.7-3.4 4.3-8.5 6.7-13.8 6.7zM192 862.7h-52.5c-19.3 0-35-15.7-35-35v-140c0-19.3 15.7-35 35-35H192c19.3 0 35 15.7 35 35v140c0 19.3-15.7 35-35 35z m-52.5-175.1v140H192v-140h-52.5zM419.6 862.7h-52.5c-19.3 0-35-15.7-35-35v-315c0-19.3 15.7-35 35-35h52.5c19.3 0 35 15.7 35 35v315c0 19.3-15.7 35-35 35z m-52.5-350.1v315h52.5v-315h-52.5zM647.1 862.7h-52.5c-19.3 0-35-15.7-35-35v-140c0-19.3 15.7-35 35-35h52.5c19.3 0 35 15.7 35 35v140c0 19.3-15.7 35-35 35z m-52.5-175.1v140h52.5v-140h-52.5zM857.1 862.7h-52.5c-19.3 0-35-15.7-35-35V460.1c0-19.3 15.7-35 35-35h52.5c19.3 0 35 15.7 35 35v367.5c0 19.4-15.7 35.1-35 35.1z m-52.5-402.6v367.5h52.5V460.1h-52.5z" fill="#5E6877" p-id="9492"></path></svg>