<?xml version="1.0" standalone="no"?><!DOCTYPE svg PUBLIC "-//W3C//DTD SVG 1.1//EN" "http://www.w3.org/Graphics/SVG/1.1/DTD/svg11.dtd"><svg t="1727750581787" class="icon" viewBox="0 0 1024 1024" version="1.1" xmlns="http://www.w3.org/2000/svg" p-id="12668" xmlns:xlink="http://www.w3.org/1999/xlink" width="200" height="200"><path d="M373.248 179.2l52.096 292.16H357.12l-18.304-102.464-19.84 102.4H250.56L307.2 178.752a33.6 33.6 0 0 1 66.048 0.512z m265.856 292.16H512.192l33.6-137.152a33.6 33.6 0 0 1 65.536 1.28l27.776 135.872z m-509.76 15.808h58.88a27.968 27.968 0 0 1 0 55.936h-58.88a27.968 27.968 0 1 1 0-55.936z m176.64 55.936h117.76a27.968 27.968 0 1 0 0-55.936H305.92a27.968 27.968 0 0 0 0 55.936z m235.456 0h117.76a27.968 27.968 0 1 0 0-55.936H541.44a27.968 27.968 0 0 0 0 55.936z m235.52 0h117.696a27.968 27.968 0 1 0 0-55.936h-117.76a27.968 27.968 0 0 0 0 55.936z m-543.36 15.808h68.48l-20.16 103.936a33.6 33.6 0 1 1-65.92-12.8l17.6-91.136z m255.808 288l70.528-288h-69.12l-28.864 117.632-20.992-117.632H372.736L423.68 844.8a33.6 33.6 0 0 0 65.728 2.112z m310.016-49.984l-48.64-182.4-48.64 182.4a33.6 33.6 0 0 1-65.408-1.92l-48.256-236.096h68.544l16.96 82.816 22.08-82.816h109.44l58.816 220.672a33.536 33.536 0 1 1-64.896 17.28z" fill="#646464" p-id="12669"></path></svg>