<?xml version="1.0" standalone="no"?><!DOCTYPE svg PUBLIC "-//W3C//DTD SVG 1.1//EN" "http://www.w3.org/Graphics/SVG/1.1/DTD/svg11.dtd"><svg t="1728013978937" class="icon" viewBox="0 0 1024 1024" version="1.1" xmlns="http://www.w3.org/2000/svg" p-id="4853" xmlns:xlink="http://www.w3.org/1999/xlink" width="200" height="200"><path d="M110.387 627.019l-31.453 54.479c-10.816 18.733-34.77 25.151-53.503 14.336C6.698 685.018 0.279 661.064 11.095 642.33l83.933-145.377c10.816-18.733 34.77-25.151 53.503-14.336l145.28 83.877c18.732 10.816 25.15 34.77 14.335 53.503-10.815 18.733-34.77 25.151-53.503 14.336l-60.46-34.907c38.072 137.964 164.529 238.51 313.479 238.51 126.35 0 239.58-72.748 293.328-184.753 10.528-21.94 36.849-31.19 58.788-20.663 21.94 10.528 31.191 36.849 20.663 58.789-68.275 142.279-212.207 234.753-372.78 234.753-187.857 0-347.524-125.775-397.274-299.044v0.001z m709.037-207.446c-40.06-134.966-165.096-232.51-311.762-232.51-126.44 0-239.736 72.85-293.436 184.977-10.512 21.948-36.825 31.219-58.773 20.708-21.947-10.512-31.219-36.825-20.707-58.773C202.96 191.542 346.976 98.937 507.662 98.937c191.368 0 353.719 130.594 400.061 309.245l37.343-64.68c10.816-18.733 34.77-25.151 53.503-14.336 18.733 10.816 25.152 34.77 14.336 53.503l-83.933 145.377c-10.816 18.733-34.77 25.151-53.503 14.336l-145.28-83.877c-18.732-10.816-25.15-34.77-14.335-53.503 10.815-18.733 34.77-25.151 53.503-14.336l50.067 28.907z" fill="#999999" p-id="4854"></path></svg>