<?xml version="1.0" standalone="no"?><!DOCTYPE svg PUBLIC "-//W3C//DTD SVG 1.1//EN" "http://www.w3.org/Graphics/SVG/1.1/DTD/svg11.dtd"><svg t="1727976330380" class="icon" viewBox="0 0 1024 1024" version="1.1" xmlns="http://www.w3.org/2000/svg" p-id="1534" xmlns:xlink="http://www.w3.org/1999/xlink" width="200" height="200"><path d="M934.912 832a21.333333 21.333333 0 0 1-21.333333-21.333333v-170.666667a21.376 21.376 0 0 0-21.333334-21.333333h-128a21.376 21.376 0 0 0-21.333333 21.333333v170.666667a21.333333 21.333333 0 0 1-42.666667 0v-170.666667a64.085333 64.085333 0 0 1 64-64h128a64.085333 64.085333 0 0 1 64 64v170.666667a21.333333 21.333333 0 0 1-21.333333 21.333333zM337.578667 832a21.333333 21.333333 0 0 1-21.333334-21.333333V298.666667a21.376 21.376 0 0 0-21.333333-21.333334h-128a21.376 21.376 0 0 0-21.333333 21.333334v512a21.333333 21.333333 0 0 1-42.666667 0V298.666667a64.085333 64.085333 0 0 1 64-64h128a64.085333 64.085333 0 0 1 64 64v512a21.333333 21.333333 0 0 1-21.333333 21.333333zM636.245333 832a21.333333 21.333333 0 0 1-21.333333-21.333333v-256a21.376 21.376 0 0 0-21.333333-21.333334h-128a21.376 21.376 0 0 0-21.333334 21.333334v256a21.333333 21.333333 0 0 1-42.666666 0v-256a64.085333 64.085333 0 0 1 64-64h128a64.085333 64.085333 0 0 1 64 64v256a21.333333 21.333333 0 0 1-21.333334 21.333333zM977.578667 917.333333h-896a21.333333 21.333333 0 1 1 0-42.666666h896a21.333333 21.333333 0 0 1 0 42.666666zM685.184 322.133333a21.12 21.12 0 0 1-8.234667-1.706666c-7.125333-2.944-173.866667-73.856-171.008-183.125334a21.333333 21.333333 0 0 1 21.333334-20.736h0.597333a21.376 21.376 0 0 1 20.736 21.930667c-1.706667 66.432 103.936 125.44 144.810667 142.634667a21.333333 21.333333 0 0 1-8.234667 40.96z" fill="#757575" p-id="1535"></path><path d="M727.381333 251.52l21.930667 39.765333 34.730667 62.976-71.68 5.632-45.312 3.541334 36.48-41.856 6.357333-7.253334 2.56-9.344 14.933333-53.461333m-6.4-81.194667a21.376 21.376 0 0 0-18.517333 11.733334l-31.104 111.488-76.032 87.253333a19.2 19.2 0 0 0 14.890667 29.781333l1.493333-0.042666 103.936-8.106667 103.936-8.106667a22.528 22.528 0 0 0 17.450667-32.426666l-50.346667-91.221334-50.346667-91.306666a17.109333 17.109333 0 0 0-15.36-9.045334z" fill="#757575" p-id="1536"></path></svg>