<?xml version="1.0" standalone="no"?><!DOCTYPE svg PUBLIC "-//W3C//DTD SVG 1.1//EN" "http://www.w3.org/Graphics/SVG/1.1/DTD/svg11.dtd"><svg t="1727720773844" class="icon" viewBox="0 0 1024 1024" version="1.1" xmlns="http://www.w3.org/2000/svg" p-id="11532" xmlns:xlink="http://www.w3.org/1999/xlink" width="200" height="200"><path d="M135.612631 924.220483c0 19.780509-15.97688 35.757388-35.757388 35.757388l0 0c-19.781532 0-35.763528-15.97688-35.763528-35.757388L64.091714 99.613742c0-19.781532 15.981996-35.764552 35.763528-35.764552l0 0c19.780509 0 35.757388 15.981996 35.757388 35.764552L135.612631 924.220483 135.612631 924.220483zM135.612631 924.220483" fill="#262535" p-id="11533"></path><path d="M99.855242 959.976848c-19.781532 0-35.763528-15.97688-35.763528-35.757388l0 0c0-19.780509 15.981996-35.763528 35.763528-35.763528l824.334541 0c19.780509 0 35.764552 15.984043 35.764552 35.763528l0 0c0 19.780509-15.984043 35.757388-35.764552 35.757388L99.855242 959.976848 99.855242 959.976848zM99.855242 959.976848" fill="#262535" p-id="11534"></path><path d="M827.831178 325.393975c-2.177596 0-4.365424-0.089028-6.567579-0.273223-57.026808-4.796236-82.302471-39.536458-104.60236-70.187549-16.946974-23.293519-32.955576-45.294602-64.034409-57.31845-51.997258-20.119223-79.969333-7.127328-130.748856 16.45374-56.406684 26.193569-133.658116 62.066591-279.003412 65.046459-15.428388 0.298805-28.189016-11.932774-28.505217-27.359115s11.932774-28.189016 27.359115-28.505217c133.60695-2.740414 201.812355-34.411741 256.615519-59.861366 53.81772-24.992207 100.295264-46.573735 174.445054-17.887392 46.421262 17.96107 70.060659 50.451042 89.055269 76.55763 21.383006 29.390377 33.946137 44.845371 64.101947 47.381124 20.652366 1.74269 57.018621-25.003464 74.846662-55.023174 7.880481-13.268188 25.022906-17.631566 38.288025-9.756201 13.267165 7.879458 17.633612 25.02086 9.755178 38.288025-12.221346 20.579711-31.149441 41.09393-51.92972 56.282864C880.187617 311.451428 855.124801 325.393975 827.831178 325.393975z" fill="#262535" p-id="11535"></path><path d="M467.234447 534.565948c-24.037463 0-50.671053-3.437286-78.697363-12.762675-69.574588-23.152303-129.485073-76.515674-178.065512-158.608368-7.857968-13.279445-3.463891-30.413684 9.815553-38.271652 13.280468-7.857968 30.414707-3.463891 38.271652 9.815553 93.901647 158.674882 207.262484 153.012929 266.475074 135.509277 34.053584-10.063193 64.788585-31.998785 97.327676-55.222719 38.761815-27.665083 78.843696-56.271608 126.552278-64.274886 71.27737-11.963473 108.169605 16.251126 164.008354 58.954717 8.964162 6.855128 18.232247 13.94357 28.545126 21.599947 12.389168 9.197476 14.976086 26.698059 5.777587 39.086204-9.196453 12.389168-26.700105 14.973016-39.08518 5.777587-10.632151-7.894807-20.487613-15.430434-29.181623-22.079878-53.456492-40.882106-73.462129-56.178487-120.818693-48.232514-34.990932 5.870708-68.190055 29.565363-103.337553 54.650691-34.859949 24.879644-70.90591 50.606585-113.951285 63.328327C521.538237 529.546631 496.282017 534.565948 467.234447 534.565948z" fill="#262535" p-id="11536"></path><path d="M733.807758 684.037215c-38.897915 0.00307-73.473385-19.24839-104.490819-36.514635-35.33681-19.672038-65.853847-36.666084-97.528244-27.301809-10.874675 3.214205-25.742291 10.898211-41.481763 19.034519-35.908838 18.560728-80.591503 41.681308-129.707131 40.706097-58.655911-1.13894-109.166305-36.81344-150.127206-106.030895-7.857968-13.279445-3.463891-30.413684 9.815553-38.271652 13.278421-7.857968 30.413684-3.463891 38.271652 9.815553 30.864962 52.15587 64.597227 77.872578 103.125729 78.621639 34.952047 0.692778 71.082942-17.998933 102.96507-34.478256 18.167778-9.390881 35.329646-18.261922 51.302433-22.982434 54.180993-16.009625 100.062973 9.531074 140.54292 32.0653 30.717605 17.10047 59.724243 33.252335 87.22969 28.639271 26.520003-4.448312 45.804209-21.428032 70.218248-42.923602 27.691689-24.381293 59.077513-52.014654 108.868523-67.89432 14.70491-4.683672 30.419823 3.429099 35.107589 18.128893 4.687766 14.700817-3.428076 30.417777-18.128893 35.106566-38.634926 12.320607-64.200184 34.82925-88.921215 56.595996-27.365254 24.092721-55.661717 49.007157-97.898681 56.093553C746.470149 683.536818 740.079602 684.037215 733.807758 684.037215z" fill="#262535" p-id="11537"></path></svg>