<?xml version="1.0" standalone="no"?><!DOCTYPE svg PUBLIC "-//W3C//DTD SVG 1.1//EN" "http://www.w3.org/Graphics/SVG/1.1/DTD/svg11.dtd"><svg t="1727976344482" class="icon" viewBox="0 0 1024 1024" version="1.1" xmlns="http://www.w3.org/2000/svg" p-id="1701" xmlns:xlink="http://www.w3.org/1999/xlink" width="200" height="200"><path d="M336.64 404.906667a108.714667 108.714667 0 0 1-34.133333-5.376 21.333333 21.333333 0 1 1 13.312-40.533334c62.592 20.522667 150.016-63.488 178.176-97.749333a21.333333 21.333333 0 0 1 33.024 27.093333c-4.394667 5.290667-96.853333 116.565333-190.378667 116.565334z" fill="#757575" p-id="1702"></path><path d="M590.08 195.413333l-15.189333 70.314667-9.6 44.373333-29.610667-46.933333-5.12-8.192-8.192-5.12-46.933333-29.610667 44.373333-9.6 70.314667-15.232m26.709333-48.981333a19.797333 19.797333 0 0 0-4.181333 0.426667l-101.888 22.058666-101.888 22.058667a19.114667 19.114667 0 0 0-7.168 33.194667l97.877333 61.738666 61.781333 97.92a22.058667 22.058667 0 0 0 15.573334 6.698667 17.493333 17.493333 0 0 0 17.578666-13.909333l22.058667-101.845334 22.058667-101.888a22.698667 22.698667 0 0 0-21.802667-26.453333zM337.578667 832a21.333333 21.333333 0 0 1-21.333334-21.333333v-170.666667a21.376 21.376 0 0 0-21.333333-21.333333h-128a21.376 21.376 0 0 0-21.333333 21.333333v170.666667a21.333333 21.333333 0 0 1-42.666667 0v-170.666667a64.085333 64.085333 0 0 1 64-64h128a64.085333 64.085333 0 0 1 64 64v170.666667a21.333333 21.333333 0 0 1-21.333333 21.333333zM934.912 832a21.333333 21.333333 0 0 1-21.333333-21.333333V298.666667a21.376 21.376 0 0 0-21.333334-21.333334h-128a21.376 21.376 0 0 0-21.333333 21.333334v512a21.333333 21.333333 0 0 1-42.666667 0V298.666667a64.085333 64.085333 0 0 1 64-64h128a64.085333 64.085333 0 0 1 64 64v512a21.333333 21.333333 0 0 1-21.333333 21.333333zM636.245333 832a21.333333 21.333333 0 0 1-21.333333-21.333333v-256a21.376 21.376 0 0 0-21.333333-21.333334h-128a21.376 21.376 0 0 0-21.333334 21.333334v256a21.333333 21.333333 0 0 1-42.666666 0v-256a64.085333 64.085333 0 0 1 64-64h128a64.085333 64.085333 0 0 1 64 64v256a21.333333 21.333333 0 0 1-21.333334 21.333333zM977.578667 917.333333h-896a21.333333 21.333333 0 1 1 0-42.666666h896a21.333333 21.333333 0 0 1 0 42.666666z" fill="#757575" p-id="1703"></path></svg>