<?xml version="1.0" standalone="no"?><!DOCTYPE svg PUBLIC "-//W3C//DTD SVG 1.1//EN" "http://www.w3.org/Graphics/SVG/1.1/DTD/svg11.dtd"><svg t="1728109414332" class="icon" viewBox="0 0 1024 1024" version="1.1" xmlns="http://www.w3.org/2000/svg" p-id="5160" xmlns:xlink="http://www.w3.org/1999/xlink" width="200" height="200"><path d="M108 348h48v136h-48zM960 700H256v-48h704c4.336 0 12-3.664 12-8v-312h44v312c0 30.872-25.12 56-56 56z" p-id="5161"></path><path d="M996 652a24 24 0 0 1-24-24v-312c0-4.336-3.664-8-8-8h-800c-4.336 0-8 3.664-8 8v208a24 24 0 1 1-48 0v-208c0-30.872 25.12-56 56-56h800c30.88 0 56 25.128 56 56v312a24 24 0 0 1-24 24z" p-id="5162"></path><path d="M992 620H304a16 16 0 0 1 0-32h688a16 16 0 0 1 0 32z" p-id="5163"></path><path d="M220.032 790a15.984 15.984 0 0 1-15.76-13.224l-13.632-77.232-66.8 66.8a16 16 0 0 1-22.624 0l-75.88-75.88a16 16 0 0 1 0-22.624l68.544-68.544-73.768-18.448a15.992 15.992 0 0 1-2.416-30.224l354.12-151.76a16 16 0 0 1 20.952 21.136L234.68 780.44a16.024 16.024 0 0 1-14.648 9.56zM59.272 679.152l53.256 53.256 77.216-77.216a16.008 16.008 0 0 1 27.072 8.536l9.784 55.464L347.2 444.216 73.96 561.32l55.104 13.776a16 16 0 0 1 7.432 26.832l-77.224 77.224z" p-id="5164"></path><path d="M220.032 812a24 24 0 0 1-23.64-19.824l-10.96-62.104-55.936 55.928c-9.008 9-24.936 9-33.944 0l-75.88-75.88a24 24 0 0 1 0-33.936l58.56-58.56L12 604v-24-24l96-56v-208c0-30.872 21.12-56 52-56h824c11.728 0 20.904 3.808 27.256 11.304 9.768 11.528 7.464 25.304 5.944 34.416-0.616 3.68-1.2 7.16-1.2 10.28v368c0 3.12 0.584 6.6 1.2 10.28 1.52 9.112 3.824 22.88-5.944 34.416-6.352 7.496-15.528 11.304-27.256 11.304H286.296l-45.168 83.432a24 24 0 0 1-21.096 12.568zM70.592 693.152l41.936 41.936 60.064-60.056a23.968 23.968 0 0 1 16.968-7.032h13.528a24.008 24.008 0 0 1 23.64 19.832l4.976 28.2 19.192-35.464c4.192-7.736 12.296-12.568 23.016-13.568l698.088 1v-376c0-2.824-0.24-5.496 0-8H160c-4.336 0-4 3.664-4 8v232c0 8.872-8.896 17.024-16.728 21.184l-48.864 26 40.592 10.152a23.992 23.992 0 0 1 11.16 40.248l-71.568 71.568z" p-id="5165"></path><path d="M514.424 452H432a16 16 0 0 1 0-32h82.424a16 16 0 0 1 0 32zM413.712 392.28a16 16 0 0 1-11.312-27.312l58.288-58.28a16 16 0 1 1 22.624 22.624l-58.288 58.28a15.92 15.92 0 0 1-11.312 4.688zM466.288 553.376a15.936 15.936 0 0 1-11.312-4.688l-58.288-58.28a16 16 0 1 1 22.624-22.624l58.288 58.28a16 16 0 0 1-11.312 27.312zM744 524c-33.088 0-60-26.912-60-60V380a16 16 0 0 1 32 0V464c0 15.44 12.56 28 28 28s28-12.56 28-28V380a16 16 0 0 1 32 0V464c0 33.088-26.912 60-60 60zM607.768 460H572v-32h35.768c11.152 0 20.232-7.392 20.232-16.472 0-9.088-9.08-16.48-20.232-16.48H572v-32h35.768c28.8 0 52.232 21.752 52.232 48.48S636.568 460 607.768 460z" p-id="5166"></path><path d="M615.768 523.056H580v-32h35.768c10.968 0 20.232-7.112 20.232-15.52 0-8.424-9.264-15.536-20.232-15.536H580v-32h35.768c28.8 0 52.232 21.32 52.232 47.528s-23.432 47.528-52.232 47.528z" p-id="5167"></path><path d="M580 524a16 16 0 0 1-16-16v-128a16 16 0 0 1 32 0v128a16 16 0 0 1-16 16zM876.024 460a15.984 15.984 0 0 1-12.816-6.4l-48-64a16 16 0 0 1 25.6-19.208l48 64a16 16 0 0 1-12.784 25.608z" p-id="5168"></path><path d="M875.992 460a16 16 0 0 1-12.792-25.6l48-64a16 16 0 0 1 25.6 19.208l-48 64a15.968 15.968 0 0 1-12.808 6.392z" p-id="5169"></path><path d="M876 524a16 16 0 0 1-16-16v-64a16 16 0 0 1 32 0v64a16 16 0 0 1-16 16z" p-id="5170"></path></svg>